<svg width="109pt" height="170pt" viewBox="0.00 0.00 109.00 170.00" xmlns="http://www.w3.org/2000/svg" xmlns:xlink="http://www.w3.org/1999/xlink">
<g id="graph0" class="graph" transform="scale(1 1) rotate(0) translate(4 166)">
<title>%0</title>
<!-- node_1 -->
<g id="node_1" class="node">
<title>node_1</title>
<path fill="#bfefff" stroke="#000000" stroke-width=".5" d="M32.6667,-132.5C32.6667,-132.5 42.3333,-132.5 42.3333,-132.5 47.1667,-132.5 52,-137.3333 52,-142.1667 52,-142.1667 52,-151.8333 52,-151.8333 52,-156.6667 47.1667,-161.5 42.3333,-161.5 42.3333,-161.5 32.6667,-161.5 32.6667,-161.5 27.8333,-161.5 23,-156.6667 23,-151.8333 23,-151.8333 23,-142.1667 23,-142.1667 23,-137.3333 27.8333,-132.5 32.6667,-132.5"></path>
<text text-anchor="middle" x="37.2992" y="-142.2" font-family="Courier,monospace" font-size="16.00" fill="#000000">1</text>
</g>
<!-- node_1544167982032 -->
<g id="node_1544167982032" class="node">
<title>node_1544167982032</title>
<path fill="#bfefff" stroke="#000000" stroke-width=".5" d="M9.6667,-66.5C9.6667,-66.5 19.3333,-66.5 19.3333,-66.5 24.1667,-66.5 29,-71.3333 29,-76.1667 29,-76.1667 29,-85.8333 29,-85.8333 29,-90.6667 24.1667,-95.5 19.3333,-95.5 19.3333,-95.5 9.6667,-95.5 9.6667,-95.5 4.8333,-95.5 0,-90.6667 0,-85.8333 0,-85.8333 0,-76.1667 0,-76.1667 0,-71.3333 4.8333,-66.5 9.6667,-66.5"></path>
<text text-anchor="middle" x="14.2992" y="-76.2" font-family="Courier,monospace" font-size="16.00" fill="#000000">1</text>
</g>
<!-- node_1&#45;&gt;node_1544167982032 -->
<g id="edge1" class="edge">
<title>node_1-&gt;node_1544167982032</title>
<path fill="none" stroke="#000000" d="M32.3956,-132.3525C29.4178,-123.8077 25.6013,-112.8558 22.2582,-103.2626"></path>
<polygon fill="#404040" stroke="#000000" points="24.8669,-102.2396 19.5902,-95.6066 19.5788,-104.0825 24.8669,-102.2396"></polygon>
</g>
<!-- node_3 -->
<g id="node_3" class="node">
<title>node_3</title>
<path fill="#bfefff" stroke="#000000" stroke-width=".5" d="M56.6667,-66.5C56.6667,-66.5 66.3333,-66.5 66.3333,-66.5 71.1667,-66.5 76,-71.3333 76,-76.1667 76,-76.1667 76,-85.8333 76,-85.8333 76,-90.6667 71.1667,-95.5 66.3333,-95.5 66.3333,-95.5 56.6667,-95.5 56.6667,-95.5 51.8333,-95.5 47,-90.6667 47,-85.8333 47,-85.8333 47,-76.1667 47,-76.1667 47,-71.3333 51.8333,-66.5 56.6667,-66.5"></path>
<text text-anchor="middle" x="61.2992" y="-76.2" font-family="Courier,monospace" font-size="16.00" fill="#000000">5</text>
</g>
<!-- node_1&#45;&gt;node_3 -->
<g id="edge2" class="edge">
<title>node_1-&gt;node_3</title>
<path fill="none" stroke="#000000" d="M42.8264,-132.3525C45.9336,-123.8077 49.9161,-112.8558 53.4045,-103.2626"></path>
<polygon fill="#404040" stroke="#000000" points="56.0859,-104.0819 56.1885,-95.6066 50.8231,-102.168 56.0859,-104.0819"></polygon>
</g>
<!-- node_1544167947483 -->
<g id="node_1544167947483" class="node">
<title>node_1544167947483</title>
<path fill="#bfefff" stroke="#000000" stroke-width=".5" d="M28.5683,-.5C28.5683,-.5 44.4317,-.5 44.4317,-.5 49.2651,-.5 54.0984,-5.3333 54.0984,-10.1667 54.0984,-10.1667 54.0984,-19.8333 54.0984,-19.8333 54.0984,-24.6667 49.2651,-29.5 44.4317,-29.5 44.4317,-29.5 28.5683,-29.5 28.5683,-29.5 23.7349,-29.5 18.9016,-24.6667 18.9016,-19.8333 18.9016,-19.8333 18.9016,-10.1667 18.9016,-10.1667 18.9016,-5.3333 23.7349,-.5 28.5683,-.5"></path>
<text text-anchor="middle" x="36.5" y="-10.2" font-family="Courier,monospace" font-size="16.00" fill="#000000">10</text>
</g>
<!-- node_3&#45;&gt;node_1544167947483 -->
<g id="edge3" class="edge">
<title>node_3-&gt;node_1544167947483</title>
<path fill="none" stroke="#000000" d="M55.9517,-66.3525C52.715,-57.8077 48.5666,-46.8558 44.9328,-37.2626"></path>
<polygon fill="#404040" stroke="#000000" points="47.4851,-36.096 42.0328,-29.6066 42.2482,-38.0797 47.4851,-36.096"></polygon>
</g>
<!-- node_1544167929828 -->
<g id="node_1544167929828" class="node">
<title>node_1544167929828</title>
<path fill="#bfefff" stroke="#000000" stroke-width=".5" d="M81.6667,-.5C81.6667,-.5 91.3333,-.5 91.3333,-.5 96.1667,-.5 101,-5.3333 101,-10.1667 101,-10.1667 101,-19.8333 101,-19.8333 101,-24.6667 96.1667,-29.5 91.3333,-29.5 91.3333,-29.5 81.6667,-29.5 81.6667,-29.5 76.8333,-29.5 72,-24.6667 72,-19.8333 72,-19.8333 72,-10.1667 72,-10.1667 72,-5.3333 76.8333,-.5 81.6667,-.5"></path>
<text text-anchor="middle" x="86.2992" y="-10.2" font-family="Courier,monospace" font-size="16.00" fill="#000000">3</text>
</g>
<!-- node_3&#45;&gt;node_1544167929828 -->
<g id="edge4" class="edge">
<title>node_3-&gt;node_1544167929828</title>
<path fill="none" stroke="#000000" d="M67.0483,-66.3525C70.285,-57.8077 74.4334,-46.8558 78.0672,-37.2626"></path>
<polygon fill="#404040" stroke="#000000" points="80.7518,-38.0797 80.9672,-29.6066 75.5149,-36.096 80.7518,-38.0797"></polygon>
</g>
</g>
</svg>